<svg width="394.8000122070312px" height="121.60000610351562px" xmlns="http://www.w3.org/2000/svg" viewBox="52.59999389648439 14.199996948242188 394.8000122070312 121.60000610351562" style="background: rgba(0, 0, 0, 0);" preserveAspectRatio="xMidYMid"><defs><filter id="editing-extrude-glow"><feFlood flood-color="#333333" result="flood-1"></feFlood><feMorphology operator="erode" radius="1" in="SourceAlpha" result="erode"></feMorphology><feComposite operator="in" in="flood-1" in2="erode" result="comp1"></feComposite><feConvolveMatrix order="3,3" divisor="1" in="comp1" result="convolve" kernelMatrix="0 0 0 1 1 1 0 0 0"></feConvolveMatrix><feOffset dx="-3" dy="0" in="convolve" result="extrude"></feOffset><feComposite operator="in" in="flood-1" in2="extrude" result="comp-extrude"></feComposite><feFlood flood-color="#000000" result="flood-2"></feFlood><feComposite operator="in" in="flood-2" in2="SourceAlpha" result="comp2"></feComposite><feMorphology operator="dilate" radius="1" in="comp2" result="dilate"></feMorphology><feOffset dx="-4.5" dy="0" in="dilate" result="offset"></feOffset><feGaussianBlur in="offset" stdDeviation="5.8" result="blur"></feGaussianBlur><feComponentTransfer in="blur" result="shadow"><feFuncA type="linear" slope="0.8" intercept="-0.2"></feFuncA></feComponentTransfer><feMerge><feMergeNode in="shadow"></feMergeNode><feMergeNode in="comp-extrude"></feMergeNode><feMergeNode in="SourceGraphic"></feMergeNode></feMerge></filter></defs><g filter="url(#editing-extrude-glow)"><g transform="translate(112.45998442173004, 98.99999618530273)"><path d="M34.50-13.25L34.50-13.25L34.50-13.25Q36.16-12.03 36.16-9.44L36.16-9.44L36.16-9.44Q36.16-6.85 35.04-5.02L35.04-5.02L35.04-5.02Q33.92-3.20 31.74-1.79L31.74-1.79L31.74-1.79Q27.07 1.22 18.91 1.22L18.91 1.22L18.91 1.22Q10.75 1.22 6.30-3.04L6.30-3.04L6.30-3.04Q1.86-7.30 1.86-14.85L1.86-14.85L1.86-14.85Q1.86-25.54 7.42-33.66L7.42-33.66L7.42-33.66Q11.65-39.68 19.20-42.24L19.20-42.24L19.20-42.24Q23.10-43.52 26.94-43.52L26.94-43.52L26.94-43.52Q30.78-43.52 33.15-43.01L33.15-43.01L33.15-43.01Q35.52-42.50 37.31-41.47L37.31-41.47L37.31-41.47Q41.22-39.23 41.22-35.65L41.22-35.65L41.22-35.65Q41.22-32.38 38.14-29.95L38.14-29.95L38.14-29.95Q35.33-27.78 33.02-27.78L33.02-27.78L33.02-27.78Q30.72-27.78 29.76-28.10L29.76-28.10L29.76-28.10Q30.02-30.40 30.02-31.90L30.02-31.90L30.02-31.90Q30.02-33.41 29.95-34.50L29.95-34.50L29.95-34.50Q29.89-35.58 29.57-36.61L29.57-36.61L29.57-36.61Q28.93-38.98 26.98-38.98L26.98-38.98L26.98-38.98Q25.02-38.98 23.07-37.15L23.07-37.15L23.07-37.15Q21.12-35.33 19.46-32.26L19.46-32.26L19.46-32.26Q15.68-25.28 15.68-17.02L15.68-17.02L15.68-17.02Q15.68-13.06 17.92-10.78L17.92-10.78L17.92-10.78Q20.16-8.51 24.96-8.51L24.96-8.51L24.96-8.51Q28.54-8.51 31.94-10.88L31.94-10.88L31.94-10.88Q33.41-11.90 34.50-13.25ZM73.66-7.10L73.66-7.10L73.66-7.10Q73.66-4.29 76.54-3.46L76.54-3.46L76.54-3.46Q75.84-1.09 73.09 0.19L73.09 0.19L73.09 0.19Q70.78 1.28 68.26 1.28L68.26 1.28L68.26 1.28Q65.73 1.28 64.42 0.61L64.42 0.61L64.42 0.61Q63.10-0.06 62.40-1.15L62.40-1.15L62.40-1.15Q61.25-2.82 61.25-5.95L61.25-5.95L61.25-5.95Q61.25-7.81 62.27-12.93L62.27-12.93L63.17-17.79L63.17-17.79Q64.26-23.36 64.26-25.41L64.26-25.41L64.26-25.41Q64.26-28.99 62.27-28.99L62.27-28.99L62.27-28.99Q59.78-28.99 58.18-25.34L58.18-25.34L58.18-25.34Q57.54-23.94 57.09-21.82L57.09-21.82L52.74 0L39.87 1.28L48.90-44.80L61.76-46.08L61.25-43.52L61.25-43.52Q59.46-33.66 57.92-30.34L57.92-30.34L57.92-30.34Q61.50-33.92 68.10-33.92L68.10-33.92L68.10-33.92Q75.07-33.92 76.35-29.31L76.35-29.31L76.35-29.31Q76.80-27.84 76.80-26.56L76.80-26.56L76.80-26.56Q76.80-25.28 76.70-24.29L76.70-24.29L76.70-24.29Q76.61-23.30 76.29-21.50L76.29-21.50L75.46-16.90L73.98-9.66L73.98-9.66Q73.66-8.19 73.66-7.10ZM101.76-17.98L101.76-17.98L101.76-17.98Q104.06-22.08 104.06-26.24L104.06-26.24L104.06-26.24Q104.06-28.99 102.08-28.99L102.08-28.99L102.08-28.99Q100.54-28.99 98.94-26.37L98.94-26.37L98.94-26.37Q97.28-23.74 96.77-20.35L96.77-20.35L93.44 0L80.19 1.28L86.72-32.64L97.28-33.92L96.13-27.46L96.13-27.46Q99.26-33.92 106.30-33.92L106.30-33.92L106.30-33.92Q110.02-33.92 112.03-32L112.03-32L112.03-32Q114.05-30.08 114.05-26.14L114.05-26.14L114.05-26.14Q114.05-22.21 111.46-19.71L111.46-19.71L111.46-19.71Q108.86-17.22 104.45-17.22L104.45-17.22L104.45-17.22Q102.53-17.22 101.76-17.98ZM130.43-3.52L130.43-3.52L130.43-3.52Q128.45 1.28 122.11 1.28L122.11 1.28L122.11 1.28Q118.85 1.28 116.80-0.96L116.80-0.96L116.80-0.96Q115.07-2.94 115.07-4.93L115.07-4.93L115.07-4.93Q115.07-10.11 117.44-20.22L117.44-20.22L119.81-32.64L132.80-33.92L128.90-13.70L128.90-13.70Q127.81-8.96 127.81-7.30L127.81-7.30L127.81-7.30Q127.81-3.65 130.43-3.52ZM120.96-41.54L120.96-41.54L120.96-41.54Q120.96-44.03 123.04-45.38L123.04-45.38L123.04-45.38Q125.12-46.72 128.13-46.72L128.13-46.72L128.13-46.72Q131.14-46.72 132.96-45.38L132.96-45.38L132.96-45.38Q134.78-44.03 134.78-41.54L134.78-41.54L134.78-41.54Q134.78-39.04 132.77-37.76L132.77-37.76L132.77-37.76Q130.75-36.48 127.74-36.48L127.74-36.48L127.74-36.48Q124.74-36.48 122.85-37.76L122.85-37.76L122.85-37.76Q120.96-39.04 120.96-41.54ZM155.01-22.46L155.01-22.46L155.01-22.46Q155.90-24.83 155.90-26.88L155.90-26.88L155.90-26.88Q155.90-30.66 152.83-30.66L152.83-30.66L152.83-30.66Q151.23-30.66 149.92-29.22L149.92-29.22L149.92-29.22Q148.61-27.78 148.61-25.98L148.61-25.98L148.61-25.98Q148.61-24.70 149.63-23.68L149.63-23.68L149.63-23.68Q151.10-22.27 154.88-19.97L154.88-19.97L154.88-19.97Q158.66-17.66 160.10-15.78L160.10-15.78L160.10-15.78Q161.54-13.89 161.54-11.30L161.54-11.30L161.54-11.30Q161.54-8.70 160.29-6.34L160.29-6.34L160.29-6.34Q159.04-3.97 156.80-2.30L156.80-2.30L156.80-2.30Q152.00 1.28 144.32 1.28L144.32 1.28L144.32 1.28Q140.16 1.28 136.96-0.90L136.96-0.90L136.96-0.90Q133.76-3.01 133.76-5.50L133.76-5.50L133.76-5.50Q133.76-8 135.58-9.47L135.58-9.47L135.58-9.47Q137.41-10.94 140.10-10.94L140.10-10.94L140.10-10.94Q142.78-10.94 144.45-9.92L144.45-9.92L144.45-9.92Q143.62-7.81 143.62-6.40L143.62-6.40L143.62-6.40Q143.62-2.18 147.20-2.18L147.20-2.18L147.20-2.18Q148.74-2.18 149.76-3.14L149.76-3.14L149.76-3.14Q150.78-4.10 150.78-5.76L150.78-5.76L150.78-5.76Q150.78-9.02 145.28-12.48L145.28-12.48L145.28-12.48Q140.80-15.42 139.78-16.58L139.78-16.58L139.78-16.58Q138.05-18.62 138.05-21.18L138.05-21.18L138.05-21.18Q138.05-23.74 139.26-26.18L139.26-26.18L139.26-26.18Q140.48-28.61 142.72-30.34L142.72-30.34L142.72-30.34Q147.39-33.92 155.52-33.92L155.52-33.92L155.52-33.92Q159.68-33.92 162.14-32.26L162.14-32.26L162.14-32.26Q164.61-30.59 164.61-27.78L164.61-27.78L164.61-27.78Q164.61-24.96 162.91-23.36L162.91-23.36L162.91-23.36Q161.22-21.76 158.14-21.76L158.14-21.76L158.14-21.76Q156.03-21.76 155.01-22.46ZM185.60 0L178.24 0L189.82-42.24L203.20-42.24L206.14-18.11L218.05-42.24L229.25-42.24L230.40-10.62L230.40-10.62Q230.66-4.35 233.73-2.43L233.73-2.43L233.73-2.43Q233.02-1.15 230.98 0.06L230.98 0.06L230.98 0.06Q228.93 1.28 226.21 1.28L226.21 1.28L226.21 1.28Q223.49 1.28 221.89 0.51L221.89 0.51L221.89 0.51Q220.29-0.26 219.39-1.54L219.39-1.54L219.39-1.54Q217.79-3.84 217.79-8.26L217.79-8.26L217.79-28.03L205.18 0L197.25 0L192.77-28.74L185.60 0ZM239.26-1.92L239.26-1.92L239.26-1.92Q237.76-3.58 237.09-6.21L237.09-6.21L237.09-6.21Q236.42-8.83 236.42-13.12L236.42-13.12L236.42-13.12Q236.42-17.41 237.89-21.31L237.89-21.31L237.89-21.31Q239.36-25.22 242.05-28.03L242.05-28.03L242.05-28.03Q247.55-33.92 256.64-33.92L256.64-33.92L256.64-33.92Q259.90-33.92 262.27-32.83L262.27-32.83L273.22-33.92L268.48-8.96L268.48-8.96Q268.29-8.19 268.29-6.78L268.29-6.78L268.29-6.78Q268.29-5.38 269.15-4.48L269.15-4.48L269.15-4.48Q270.02-3.58 271.30-3.46L271.30-3.46L271.30-3.46Q270.66-1.28 268.32 0L268.32 0L268.32 0Q265.98 1.28 263.36 1.28L263.36 1.28L263.36 1.28Q260.74 1.28 258.98 0.29L258.98 0.29L258.98 0.29Q257.22-0.70 256.70-2.37L256.70-2.37L256.70-2.37Q255.68-0.77 253.50 0.26L253.50 0.26L253.50 0.26Q251.33 1.28 248.42 1.28L248.42 1.28L248.42 1.28Q245.50 1.28 243.14 0.51L243.14 0.51L243.14 0.51Q240.77-0.26 239.26-1.92ZM252.77-27.90L252.77-27.90L252.77-27.90Q252.03-26.75 251.39-24.80L251.39-24.80L251.39-24.80Q250.75-22.85 249.70-17.63L249.70-17.63L249.70-17.63Q248.64-12.42 248.64-8.70L248.64-8.70L248.64-8.70Q248.64-4.99 249.22-3.90L249.22-3.90L249.22-3.90Q249.79-2.82 250.82-2.82L250.82-2.82L250.82-2.82Q252.86-2.82 254.37-4.77L254.37-4.77L254.37-4.77Q255.87-6.72 256.45-10.18L256.45-10.18L259.84-28.93L259.84-28.93Q258.50-30.08 256.93-30.08L256.93-30.08L256.93-30.08Q255.36-30.08 254.43-29.57L254.43-29.57L254.43-29.57Q253.50-29.06 252.77-27.90Z" fill="#eb6c6c"></path></g></g><style>text {
  font-size: 64px;
  font-family: Arial Black;
  dominant-baseline: central;
  text-anchor: middle;
}</style></svg>