<svg width="500px" height="120px" xmlns="http://www.w3.org/2000/svg" viewBox="0 0 500 120" style="background: rgba(0, 0, 0, 0);" preserveAspectRatio="xMidYMid"><defs><filter id="editing-extrude-glow"><feFlood flood-color="#333333" result="flood-1"></feFlood><feMorphology operator="erode" radius="1" in="SourceAlpha" result="erode"></feMorphology><feComposite operator="in" in="flood-1" in2="erode" result="comp1"></feComposite><feConvolveMatrix order="3,3" divisor="1" in="comp1" result="convolve" kernelMatrix="0 0 0 1 1 1 0 0 0"></feConvolveMatrix><feOffset dx="-3" dy="0" in="convolve" result="extrude"></feOffset><feComposite operator="in" in="flood-1" in2="extrude" result="comp-extrude"></feComposite><feFlood flood-color="#000000" result="flood-2"></feFlood><feComposite operator="in" in="flood-2" in2="SourceAlpha" result="comp2"></feComposite><feMorphology operator="dilate" radius="1" in="comp2" result="dilate"></feMorphology><feOffset dx="-4.5" dy="0" in="dilate" result="offset"></feOffset><feGaussianBlur in="offset" stdDeviation="5.8" result="blur"></feGaussianBlur><feComponentTransfer in="blur" result="shadow"><feFuncA type="linear" slope="0.8" intercept="-0.2"></feFuncA></feComponentTransfer><feMerge><feMergeNode in="shadow"></feMergeNode><feMergeNode in="comp-extrude"></feMergeNode><feMergeNode in="SourceGraphic"></feMergeNode></feMerge></filter></defs><g filter="url(#editing-extrude-glow)"><g transform="translate(10.094993829727173, 98.67999839782715)"><path d="M28.42-9.86L28.42-9.86L28.42-9.86Q29.63-8.32 29.63-5.82L29.63-5.82L29.63-5.82Q29.63-2.37 27.07-0.54L27.07-0.54L27.07-0.54Q24.51 1.28 20.48 1.28L20.48 1.28L20.48 1.28Q18.18 1.28 14.66 0.77L14.66 0.77L14.66 0.77Q7.74-0.32 5.63-0.32L5.63-0.32L5.63-0.32Q3.52-0.32 2.69-0.22L2.69-0.22L2.69-0.22Q1.86-0.13 0.51 0L0.51 0L8.38-42.24L35.97-42.24L35.97-42.24Q35.97-38.34 34.08-36.29L34.08-36.29L34.08-36.29Q32.19-34.24 28.48-34.24L28.48-34.24L28.48-34.24Q24.77-34.24 20.99-35.97L20.99-35.97L19.01-24.77L30.40-24.77L30.40-24.77Q30.40-21.38 28.74-19.49L28.74-19.49L28.74-19.49Q27.07-17.60 24.29-17.60L24.29-17.60L24.29-17.60Q21.50-17.60 19.78-18.24L19.78-18.24L19.78-18.24Q18.05-18.88 17.86-19.07L17.86-19.07L15.55-6.98L15.55-6.98Q17.09-6.78 19.97-6.78L19.97-6.78L19.97-6.78Q24.90-6.78 28.42-9.86ZM58.75-31.55L58.75-31.55L58.75-31.55Q60.86-33.92 64.51-33.92L64.51-33.92L64.51-33.92Q66.75-33.92 68.48-32.70L68.48-32.70L68.48-32.70Q70.21-31.49 70.21-29.22L70.21-29.22L70.21-29.22Q70.21-26.94 69.50-24.51L69.50-24.51L69.50-24.51Q68.80-22.08 67.71-19.58L67.71-19.58L67.71-19.58Q65.54-14.72 62.53-10.69L62.53-10.69L62.53-10.69Q58.30-4.86 54.24-1.79L54.24-1.79L54.24-1.79Q50.18 1.28 45.76 1.28L45.76 1.28L45.76 1.28Q42.18 1.28 40 0.45L40 0.45L40 0.45Q39.62-12.99 39.14-17.79L39.14-17.79L39.14-17.79Q38.66-22.59 38.27-25.22L38.27-25.22L38.27-25.22Q37.63-30.34 35.71-31.55L35.71-31.55L35.71-31.55Q37.18-32.83 38.62-33.38L38.62-33.38L38.62-33.38Q40.06-33.92 43.04-33.92L43.04-33.92L43.04-33.92Q46.02-33.92 48.13-31.58L48.13-31.58L48.13-31.58Q50.24-29.25 50.66-25.12L50.66-25.12L50.66-25.12Q51.07-20.99 51.07-16L51.07-16L51.07-16Q51.07-11.01 50.69-4.99L50.69-4.99L50.69-4.99Q52.67-6.40 54.78-10.69L54.78-10.69L54.78-10.69Q57.66-16.64 58.69-23.81L58.69-23.81L58.69-23.81Q59.01-25.98 59.01-28.29L59.01-28.29L59.01-28.29Q59.01-30.59 58.75-31.55ZM74.72-1.92L74.72-1.92L74.72-1.92Q73.22-3.58 72.54-6.21L72.54-6.21L72.54-6.21Q71.87-8.83 71.87-13.12L71.87-13.12L71.87-13.12Q71.87-17.41 73.34-21.31L73.34-21.31L73.34-21.31Q74.82-25.22 77.50-28.03L77.50-28.03L77.50-28.03Q83.01-33.92 92.10-33.92L92.10-33.92L92.10-33.92Q95.36-33.92 97.73-32.83L97.73-32.83L108.67-33.92L103.94-8.96L103.94-8.96Q103.74-8.19 103.74-6.78L103.74-6.78L103.74-6.78Q103.74-5.38 104.61-4.48L104.61-4.48L104.61-4.48Q105.47-3.58 106.75-3.46L106.75-3.46L106.75-3.46Q106.11-1.28 103.78 0L103.78 0L103.78 0Q101.44 1.28 98.82 1.28L98.82 1.28L98.82 1.28Q96.19 1.28 94.43 0.29L94.43 0.29L94.43 0.29Q92.67-0.70 92.16-2.37L92.16-2.37L92.16-2.37Q91.14-0.77 88.96 0.26L88.96 0.26L88.96 0.26Q86.78 1.28 83.87 1.28L83.87 1.28L83.87 1.28Q80.96 1.28 78.59 0.51L78.59 0.51L78.59 0.51Q76.22-0.26 74.72-1.92ZM88.22-27.90L88.22-27.90L88.22-27.90Q87.49-26.75 86.85-24.80L86.85-24.80L86.85-24.80Q86.21-22.85 85.15-17.63L85.15-17.63L85.15-17.63Q84.10-12.42 84.10-8.70L84.10-8.70L84.10-8.70Q84.10-4.99 84.67-3.90L84.67-3.90L84.67-3.90Q85.25-2.82 86.27-2.82L86.27-2.82L86.27-2.82Q88.32-2.82 89.82-4.77L89.82-4.77L89.82-4.77Q91.33-6.72 91.90-10.18L91.90-10.18L95.30-28.93L95.30-28.93Q93.95-30.08 92.38-30.08L92.38-30.08L92.38-30.08Q90.82-30.08 89.89-29.57L89.89-29.57L89.89-29.57Q88.96-29.06 88.22-27.90ZM139.20 1.28L139.20 1.28L139.20 1.28Q131.46 1.28 131.46-4.74L131.46-4.74L131.46-4.74Q131.52-6.40 132.03-9.22L132.03-9.22L133.18-15.10L133.18-15.10Q134.91-23.42 134.91-25.28L134.91-25.28L134.91-25.28Q134.91-28.99 132.74-28.99L132.74-28.99L132.74-28.99Q129.09-28.99 127.17-19.46L127.17-19.46L123.39 0L110.53 1.28L117.18-32.70L127.68-33.92L126.66-27.65L126.66-27.65Q129.66-33.92 138.88-33.92L138.88-33.92L138.88-33.92Q143.36-33.92 145.25-32.03L145.25-32.03L145.25-32.03Q147.14-30.14 147.14-25.92L147.14-25.92L147.14-25.92Q147.14-21.95 145.09-12.67L145.09-12.67L145.09-12.67Q144.13-8.51 144.13-6.94L144.13-6.94L144.13-6.94Q144.13-5.38 144.99-4.48L144.99-4.48L144.99-4.48Q145.86-3.58 147.14-3.46L147.14-3.46L147.14-3.46Q146.50-1.28 144.29 0L144.29 0L144.29 0Q142.08 1.28 139.20 1.28ZM171.39-22.46L171.39-22.46L171.39-22.46Q172.29-24.83 172.29-26.88L172.29-26.88L172.29-26.88Q172.29-30.66 169.22-30.66L169.22-30.66L169.22-30.66Q167.62-30.66 166.30-29.22L166.30-29.22L166.30-29.22Q164.99-27.78 164.99-25.98L164.99-25.98L164.99-25.98Q164.99-24.70 166.02-23.68L166.02-23.68L166.02-23.68Q167.49-22.27 171.26-19.97L171.26-19.97L171.26-19.97Q175.04-17.66 176.48-15.78L176.48-15.78L176.48-15.78Q177.92-13.89 177.92-11.30L177.92-11.30L177.92-11.30Q177.92-8.70 176.67-6.34L176.67-6.34L176.67-6.34Q175.42-3.97 173.18-2.30L173.18-2.30L173.18-2.30Q168.38 1.28 160.70 1.28L160.70 1.28L160.70 1.28Q156.54 1.28 153.34-0.90L153.34-0.90L153.34-0.90Q150.14-3.01 150.14-5.50L150.14-5.50L150.14-5.50Q150.14-8 151.97-9.47L151.97-9.47L151.97-9.47Q153.79-10.94 156.48-10.94L156.48-10.94L156.48-10.94Q159.17-10.94 160.83-9.92L160.83-9.92L160.83-9.92Q160-7.81 160-6.40L160-6.40L160-6.40Q160-2.18 163.58-2.18L163.58-2.18L163.58-2.18Q165.12-2.18 166.14-3.14L166.14-3.14L166.14-3.14Q167.17-4.10 167.17-5.76L167.17-5.76L167.17-5.76Q167.17-9.02 161.66-12.48L161.66-12.48L161.66-12.48Q157.18-15.42 156.16-16.58L156.16-16.58L156.16-16.58Q154.43-18.62 154.43-21.18L154.43-21.18L154.43-21.18Q154.43-23.74 155.65-26.18L155.65-26.18L155.65-26.18Q156.86-28.61 159.10-30.34L159.10-30.34L159.10-30.34Q163.78-33.92 171.90-33.92L171.90-33.92L171.90-33.92Q176.06-33.92 178.53-32.26L178.53-32.26L178.53-32.26Q180.99-30.59 180.99-27.78L180.99-27.78L180.99-27.78Q180.99-24.96 179.30-23.36L179.30-23.36L179.30-23.36Q177.60-21.76 174.53-21.76L174.53-21.76L174.53-21.76Q172.42-21.76 171.39-22.46ZM201.98 0L194.62 0L206.21-42.24L219.58-42.24L222.53-18.11L234.43-42.24L245.63-42.24L246.78-10.62L246.78-10.62Q247.04-4.35 250.11-2.43L250.11-2.43L250.11-2.43Q249.41-1.15 247.36 0.06L247.36 0.06L247.36 0.06Q245.31 1.28 242.59 1.28L242.59 1.28L242.59 1.28Q239.87 1.28 238.27 0.51L238.27 0.51L238.27 0.51Q236.67-0.26 235.78-1.54L235.78-1.54L235.78-1.54Q234.18-3.84 234.18-8.26L234.18-8.26L234.18-28.03L221.57 0L213.63 0L209.15-28.74L201.98 0ZM273.41-2.69L273.41-2.69L273.41-2.69Q270.34 1.28 262.72 1.28L262.72 1.28L262.72 1.28Q258.75 1.28 255.87-1.12L255.87-1.12L255.87-1.12Q252.99-3.52 252.99-6.98L252.99-6.98L252.99-6.98Q252.99-8.90 253.18-9.86L253.18-9.86L257.47-32.64L270.46-33.92L265.79-9.22L265.79-9.22Q265.54-7.81 265.54-6.98L265.54-6.98L265.54-6.98Q265.54-3.26 267.78-3.26L267.78-3.26L267.78-3.26Q270.27-3.26 272.06-6.66L272.06-6.66L272.06-6.66Q272.64-7.74 272.90-9.15L272.90-9.15L277.44-32.64L290.05-33.92L285.31-8.96L285.31-8.96Q285.12-8 285.12-6.98L285.12-6.98L285.12-6.98Q285.12-5.95 285.70-4.83L285.70-4.83L285.70-4.83Q286.27-3.71 288.13-3.46L288.13-3.46L288.13-3.46Q287.74-1.92 286.40-0.90L286.40-0.90L286.40-0.90Q283.58 1.28 280.54 1.28L280.54 1.28L280.54 1.28Q277.50 1.28 275.71 0.19L275.71 0.19L275.71 0.19Q273.92-0.90 273.41-2.69ZM312.64-22.46L312.64-22.46L312.64-22.46Q313.54-24.83 313.54-26.88L313.54-26.88L313.54-26.88Q313.54-30.66 310.46-30.66L310.46-30.66L310.46-30.66Q308.86-30.66 307.55-29.22L307.55-29.22L307.55-29.22Q306.24-27.78 306.24-25.98L306.24-25.98L306.24-25.98Q306.24-24.70 307.26-23.68L307.26-23.68L307.26-23.68Q308.74-22.27 312.51-19.97L312.51-19.97L312.51-19.97Q316.29-17.66 317.73-15.78L317.73-15.78L317.73-15.78Q319.17-13.89 319.17-11.30L319.17-11.30L319.17-11.30Q319.17-8.70 317.92-6.34L317.92-6.34L317.92-6.34Q316.67-3.97 314.43-2.30L314.43-2.30L314.43-2.30Q309.63 1.28 301.95 1.28L301.95 1.28L301.95 1.28Q297.79 1.28 294.59-0.90L294.59-0.90L294.59-0.90Q291.39-3.01 291.39-5.50L291.39-5.50L291.39-5.50Q291.39-8 293.22-9.47L293.22-9.47L293.22-9.47Q295.04-10.94 297.73-10.94L297.73-10.94L297.73-10.94Q300.42-10.94 302.08-9.92L302.08-9.92L302.08-9.92Q301.25-7.81 301.25-6.40L301.25-6.40L301.25-6.40Q301.25-2.18 304.83-2.18L304.83-2.18L304.83-2.18Q306.37-2.18 307.39-3.14L307.39-3.14L307.39-3.14Q308.42-4.10 308.42-5.76L308.42-5.76L308.42-5.76Q308.42-9.02 302.91-12.48L302.91-12.48L302.91-12.48Q298.43-15.42 297.41-16.58L297.41-16.58L297.41-16.58Q295.68-18.62 295.68-21.18L295.68-21.18L295.68-21.18Q295.68-23.74 296.90-26.18L296.90-26.18L296.90-26.18Q298.11-28.61 300.35-30.34L300.35-30.34L300.35-30.34Q305.02-33.92 313.15-33.92L313.15-33.92L313.15-33.92Q317.31-33.92 319.78-32.26L319.78-32.26L319.78-32.26Q322.24-30.59 322.24-27.78L322.24-27.78L322.24-27.78Q322.24-24.96 320.54-23.36L320.54-23.36L320.54-23.36Q318.85-21.76 315.78-21.76L315.78-21.76L315.78-21.76Q313.66-21.76 312.64-22.46ZM338.56 1.28L338.56 1.28L338.56 1.28Q324.48 1.28 324.48-11.97L324.48-11.97L324.48-11.97Q324.48-21.38 329.66-27.46L329.66-27.46L329.66-27.46Q335.17-33.92 344.70-33.92L344.70-33.92L344.70-33.92Q351.62-33.92 355.14-30.72L355.14-30.72L355.14-30.72Q358.66-27.52 358.66-20.80L358.66-20.80L358.66-20.80Q358.66-10.56 353.15-4.61L353.15-4.61L353.15-4.61Q347.78 1.28 338.56 1.28ZM340.22-26.56L340.22-26.56L340.22-26.56Q339.46-24.83 338.85-22.24L338.85-22.24L338.85-22.24Q338.24-19.65 337.47-15.55L337.47-15.55L337.47-15.55Q336.70-11.46 336.70-6.40L336.70-6.40L336.70-6.40Q336.70-4.74 337.25-3.65L337.25-3.65L337.25-3.65Q337.79-2.56 339.26-2.56L339.26-2.56L339.26-2.56Q340.74-2.56 341.66-3.26L341.66-3.26L341.66-3.26Q342.59-3.97 343.30-5.63L343.30-5.63L343.30-5.63Q344.58-8.58 345.60-14.05L345.60-14.05L345.60-14.05Q346.62-19.52 346.72-21.89L346.72-21.89L346.72-21.89Q346.82-24.26 346.82-26.02L346.82-26.02L346.82-26.02Q346.82-27.78 346.30-28.93L346.30-28.93L346.30-28.93Q345.79-30.08 344.35-30.08L344.35-30.08L344.35-30.08Q342.91-30.08 341.95-29.18L341.95-29.18L341.95-29.18Q340.99-28.29 340.22-26.56ZM389.50 1.28L389.50 1.28L389.50 1.28Q381.76 1.28 381.76-4.74L381.76-4.74L381.76-4.74Q381.82-6.40 382.34-9.22L382.34-9.22L383.49-15.10L383.49-15.10Q385.22-23.42 385.22-25.28L385.22-25.28L385.22-25.28Q385.22-28.99 383.04-28.99L383.04-28.99L383.04-28.99Q379.39-28.99 377.47-19.46L377.47-19.46L373.70 0L360.83 1.28L367.49-32.70L377.98-33.92L376.96-27.65L376.96-27.65Q379.97-33.92 389.18-33.92L389.18-33.92L389.18-33.92Q393.66-33.92 395.55-32.03L395.55-32.03L395.55-32.03Q397.44-30.14 397.44-25.92L397.44-25.92L397.44-25.92Q397.44-21.95 395.39-12.67L395.39-12.67L395.39-12.67Q394.43-8.51 394.43-6.94L394.43-6.94L394.43-6.94Q394.43-5.38 395.30-4.48L395.30-4.48L395.30-4.48Q396.16-3.58 397.44-3.46L397.44-3.46L397.44-3.46Q396.80-1.28 394.59 0L394.59 0L394.59 0Q392.38 1.28 389.50 1.28ZM422.72-33.92L422.72-33.92L422.72-33.92Q425.02-33.92 426.82-33.41L426.82-33.41L426.82-33.41Q426.88-33.66 427.01-34.37L427.01-34.37L427.33-36.35L427.33-36.35Q427.58-37.63 427.97-39.74L427.97-39.74L428.99-44.80L441.73-46.08L434.62-8.96L434.62-8.96Q434.56-8.58 434.56-7.94L434.56-7.94L434.56-6.91L434.56-6.91Q434.56-5.50 435.26-4.45L435.26-4.45L435.26-4.45Q435.97-3.39 437.12-3.39L437.12-3.39L437.12-3.39Q435.84-0.38 431.94 0.90L431.94 0.90L431.94 0.90Q430.59 1.28 428.70 1.28L428.70 1.28L428.70 1.28Q426.82 1.28 425.09 0.29L425.09 0.29L425.09 0.29Q423.36-0.70 422.85-2.37L422.85-2.37L422.85-2.37Q421.82-0.70 419.78 0.29L419.78 0.29L419.78 0.29Q417.73 1.28 414.75 1.28L414.75 1.28L414.75 1.28Q411.78 1.28 409.31 0.51L409.31 0.51L409.31 0.51Q406.85-0.26 405.31-1.92L405.31-1.92L405.31-1.92Q402.50-5.18 402.50-12.61L402.50-12.61L402.50-12.61Q402.50-22.21 408.13-28.03L408.13-28.03L408.13-28.03Q413.76-33.92 422.72-33.92ZM422.27-30.08L422.27-30.08L422.27-30.08Q419.90-30.08 418.62-27.52L418.62-27.52L418.62-27.52Q417.34-24.96 416.03-18.62L416.03-18.62L416.03-18.62Q414.72-12.29 414.72-6.59L414.72-6.59L414.72-6.59Q414.72-2.69 417.02-2.69L417.02-2.69L417.02-2.69Q419.07-2.69 420.51-4.74L420.51-4.74L420.51-4.74Q421.95-6.78 422.53-10.18L422.53-10.18L425.98-28.93L425.98-28.93Q424.64-30.08 422.27-30.08ZM445.34-1.92L445.34-1.92L445.34-1.92Q443.84-3.58 443.17-6.21L443.17-6.21L443.17-6.21Q442.50-8.83 442.50-13.12L442.50-13.12L442.50-13.12Q442.50-17.41 443.97-21.31L443.97-21.31L443.97-21.31Q445.44-25.22 448.13-28.03L448.13-28.03L448.13-28.03Q453.63-33.92 462.72-33.92L462.72-33.92L462.72-33.92Q465.98-33.92 468.35-32.83L468.35-32.83L479.30-33.92L474.56-8.96L474.56-8.96Q474.37-8.19 474.37-6.78L474.37-6.78L474.37-6.78Q474.37-5.38 475.23-4.48L475.23-4.48L475.23-4.48Q476.10-3.58 477.38-3.46L477.38-3.46L477.38-3.46Q476.74-1.28 474.40 0L474.40 0L474.40 0Q472.06 1.28 469.44 1.28L469.44 1.28L469.44 1.28Q466.82 1.28 465.06 0.29L465.06 0.29L465.06 0.29Q463.30-0.70 462.78-2.37L462.78-2.37L462.78-2.37Q461.76-0.77 459.58 0.26L459.58 0.26L459.58 0.26Q457.41 1.28 454.50 1.28L454.50 1.28L454.50 1.28Q451.58 1.28 449.22 0.51L449.22 0.51L449.22 0.51Q446.85-0.26 445.34-1.92ZM458.85-27.90L458.85-27.90L458.85-27.90Q458.11-26.75 457.47-24.80L457.47-24.80L457.47-24.80Q456.83-22.85 455.78-17.63L455.78-17.63L455.78-17.63Q454.72-12.42 454.72-8.70L454.72-8.70L454.72-8.70Q454.72-4.99 455.30-3.90L455.30-3.90L455.30-3.90Q455.87-2.82 456.90-2.82L456.90-2.82L456.90-2.82Q458.94-2.82 460.45-4.77L460.45-4.77L460.45-4.77Q461.95-6.72 462.53-10.18L462.53-10.18L465.92-28.93L465.92-28.93Q464.58-30.08 463.01-30.08L463.01-30.08L463.01-30.08Q461.44-30.08 460.51-29.57L460.51-29.57L460.51-29.57Q459.58-29.06 458.85-27.90Z" fill="#eb6c6c"></path></g></g><style>text {
  font-size: 64px;
  font-family: Arial Black;
  dominant-baseline: central;
  text-anchor: middle;
}</style></svg>